<svg width="311" height="170" viewBox="0 0 311 170" fill="none" xmlns="http://www.w3.org/2000/svg">
<g clip-path="url(#clip0)">
<rect width="311" height="170" fill="#E1EBE9"/>
<path d="M-14 104.221V237.441H40.6323L162 147.5L123.481 65.4273L-14 37.6104V104.221Z" fill="#D3D3D3"/>
<path d="M324 237.441V164.065L262.914 100.838L162 147.5L205.13 237.441H324Z" fill="#D3D3D3"/>
<path d="M324 -29H264.565L201.828 37.6104L262.914 100.838L324 37.6104V-29Z" fill="#D3D3D3"/>
<path d="M-14 37.6104V104.221V237.441H40.6323M-14 37.6104V-29H264.565M-14 37.6104L123.481 65.4273M123.481 65.4273L201.828 37.6104M123.481 65.4273L162 147.5M264.565 -29H324V37.6104M264.565 -29L201.828 37.6104M201.828 37.6104L262.914 100.838M324 164.065V237.441H205.13M324 164.065L262.914 100.838M324 164.065V37.6104M262.914 100.838L162 147.5M262.914 100.838L324 37.6104M162 147.5L40.6323 237.441M162 147.5L205.13 237.441M40.6323 237.441H205.13" stroke="#1C1C1C" stroke-width="2"/>
<path d="M247.33 45.5278C249.969 34.1574 267.044 34.1574 269.683 45.5278C271.196 52.2025 267.005 57.8683 263.318 61.3609C260.64 63.9222 256.411 63.9222 253.694 61.3609C250.008 57.8683 245.778 52.2025 247.33 45.5278Z" fill="#00735C"/>
<path fill-rule="evenodd" clip-rule="evenodd" d="M258.409 48.3236H258.443H258.409Z" fill="#00735C"/>
<path d="M258.409 48.3236H258.443" stroke="white" stroke-width="8.54295" stroke-linecap="round" stroke-linejoin="round"/>
<path d="M38.5879 108.202C43.292 87.9328 73.73 87.9328 78.4341 108.202C81.132 120.1 73.6607 130.2 67.0889 136.426C62.3157 140.992 54.7755 140.992 49.9331 136.426C43.3613 130.2 35.8208 120.1 38.5879 108.202Z" fill="#00735C"/>
<path fill-rule="evenodd" clip-rule="evenodd" d="M58.3369 113.185H58.3991H58.3369Z" fill="#00735C"/>
<path d="M58.3369 113.185H58.3991" stroke="white" stroke-width="9.73722" stroke-linecap="round" stroke-linejoin="round"/>
</g>
<defs>
<clipPath id="clip0">
<rect width="311" height="170" fill="white"/>
</clipPath>
</defs>
</svg>
