<svg xmlns="http://www.w3.org/2000/svg" width="19.945" height="18.056" viewBox="0 0 19.945 18.056">
  <path id="Icon_awesome-newspaper" data-name="Icon awesome-newspaper" d="M19.051,3.85H2.994c-.459,0-.766.643-.766,1.282l-.012.956H.831C.372,6.088,0,6.606,0,7.246V19.2c0,1.492.868,2.7,1.938,2.7H18.272c.917,0,1.661-1.036,1.661-2.315l.012-14.458C19.945,4.493,19.509,3.85,19.051,3.85ZM1.661,20.364V8.4h.554V19.591C2.215,19.8,1.661,20.577,1.661,20.364Zm8.444-.386H4.845c-.229,0-.415-.259-.415-.579V17.674c0-.32.186-.579.415-.579H10.1c.229,0,.415.259.415.579V19.4C10.52,19.719,10.334,19.978,10.1,19.978Zm7.2,0h-5.26c-.229,0-.415-.259-.415-.579V17.674c0-.32.186-.579.415-.579H17.3c.229,0,.415.259.415.579V19.4C17.718,19.719,17.532,19.978,17.3,19.978Zm-7.2-3.491H4.845c-.229,0-.415-.259-.415-.579V14.383c0-.32.186-.579.415-.579H10.1c.229,0,.415.259.415.579v1.524C10.52,16.227,10.334,16.487,10.1,16.487Zm7.2,0h-5.26c-.229,0-.415-.259-.415-.579V14.383c0-.32.186-.579.415-.579H17.3c.229,0,.415.259.415.579v1.524C17.718,16.227,17.532,16.487,17.3,16.487Zm0-3.97H4.845c-.229,0-.415-.259-.415-.579V6.683c0-.32.186-.579.415-.579H17.3c.229,0,.415.259.415.579v5.256C17.718,12.258,17.532,12.517,17.3,12.517Z" transform="translate(0 -3.85)" fill="#fff"/>
</svg>
