<svg xmlns="http://www.w3.org/2000/svg" xmlns:xlink="http://www.w3.org/1999/xlink" width="20" height="19.346" viewBox="0 0 20 19.346">
  <defs>
    <clipPath id="clip-path">
      <rect id="Rectangle_360" data-name="Rectangle 360" width="20" height="19.346" fill="none" stroke="#fff" stroke-width="1"/>
    </clipPath>
  </defs>
  <g id="Group_476" data-name="Group 476" transform="translate(-0.943)">
    <g id="Group_475" data-name="Group 475" transform="translate(0.943)" clip-path="url(#clip-path)">
      <path id="Path_731" data-name="Path 731" d="M9.92,1.1,1.7,5.21a1.116,1.116,0,0,0-.373.305A1.541,1.541,0,0,0,1,6.483v6.756a1.4,1.4,0,0,0,.729,1.287L9.96,18.307a.93.93,0,0,0,.777.006L18.5,14.864a1.391,1.391,0,0,0,.74-1.292V6.337a1.407,1.407,0,0,0-.692-1.27L10.776,1.105A.937.937,0,0,0,9.92,1.1Z" transform="translate(-0.121 0.072)" fill="none" stroke="#fff" stroke-miterlimit="10" stroke-width="2"/>
      <path id="Path_732" data-name="Path 732" d="M1.347,6.349l8.732,3.117a.2.2,0,0,1,.113.188l-.072,8.814L1,14.39" transform="translate(-0.121 -0.766)" fill="#fff" stroke="#fff" stroke-width="1"/>
      <path id="Path_733" data-name="Path 733" d="M1.561,6.039l8.518,3.39a.2.2,0,0,1,.113.188l-.072,8.814L1,14.352" transform="translate(-0.121 -0.729)" fill="none" stroke="#fff" stroke-miterlimit="10" stroke-width="2"/>
      <line id="Line_1" data-name="Line 1" y1="3.329" x2="9.055" transform="translate(10 5.583)" fill="#1a1818" stroke="#fff" stroke-width="1"/>
      <path id="Path_736" data-name="Path 736" d="M0,3.3,8.751-.25" transform="translate(10 5.613)" fill="none" stroke="#fff" stroke-width="2"/>
    </g>
  </g>
</svg>
