<svg width="20" height="20" viewBox="0 0 20 20" fill="none" xmlns="http://www.w3.org/2000/svg">
<path d="M7.50008 14.1667C7.50008 14.625 7.12508 15 6.66675 15C6.20841 15 5.83341 14.625 5.83341 14.1667C5.83341 13.7083 6.20841 13.3333 6.66675 13.3333C7.12508 13.3333 7.50008 13.7083 7.50008 14.1667ZM10.0001 13.3333C9.54175 13.3333 9.16675 13.7083 9.16675 14.1667C9.16675 14.625 9.54175 15 10.0001 15C10.4584 15 10.8334 14.625 10.8334 14.1667C10.8334 13.7083 10.4584 13.3333 10.0001 13.3333ZM13.3334 13.3333C12.8751 13.3333 12.5001 13.7083 12.5001 14.1667C12.5001 14.625 12.8751 15 13.3334 15C13.7917 15 14.1667 14.625 14.1667 14.1667C14.1667 13.7083 13.7917 13.3333 13.3334 13.3333ZM15.8334 10V10.6667C15.8334 11.219 15.3857 11.6667 14.8334 11.6667H5.16675C4.61446 11.6667 4.16675 11.219 4.16675 10.6667V10C4.16675 7.05833 6.34175 4.64167 9.16675 4.23333V3.33333C9.16675 2.8731 9.53984 2.5 10.0001 2.5V2.5C10.4603 2.5 10.8334 2.8731 10.8334 3.33333V4.23333C13.6584 4.64167 15.8334 7.05833 15.8334 10ZM14.1667 10C14.1667 7.7 12.3001 5.83333 10.0001 5.83333C7.70008 5.83333 5.83341 7.7 5.83341 10H14.1667ZM6.66675 15.8333C6.20841 15.8333 5.83341 16.2083 5.83341 16.6667C5.83341 17.125 6.20841 17.5 6.66675 17.5C7.12508 17.5 7.50008 17.125 7.50008 16.6667C7.50008 16.2083 7.12508 15.8333 6.66675 15.8333ZM10.0001 15.8333C9.54175 15.8333 9.16675 16.2083 9.16675 16.6667C9.16675 17.125 9.54175 17.5 10.0001 17.5C10.4584 17.5 10.8334 17.125 10.8334 16.6667C10.8334 16.2083 10.4584 15.8333 10.0001 15.8333ZM13.3334 15.8333C12.8751 15.8333 12.5001 16.2083 12.5001 16.6667C12.5001 17.125 12.8751 17.5 13.3334 17.5C13.7917 17.5 14.1667 17.125 14.1667 16.6667C14.1667 16.2083 13.7917 15.8333 13.3334 15.8333Z" fill="black"/>
</svg>
