<svg width="20" height="20" viewBox="0 0 20 20" fill="none" xmlns="http://www.w3.org/2000/svg">
<path d="M17.5001 8.98342V6.66675C17.5001 5.29175 16.3751 4.16675 15.0001 4.16675H11.6667C11.0251 4.16675 10.4417 4.41675 10.0001 4.81675C9.55842 4.41675 8.97508 4.16675 8.33342 4.16675H5.00008C3.62508 4.16675 2.50008 5.29175 2.50008 6.66675V8.98342C1.99175 9.44175 1.66675 10.1001 1.66675 10.8334V15.0001C1.66675 15.4584 2.04175 15.8334 2.50008 15.8334C2.95841 15.8334 3.33341 15.4584 3.33341 15.0001V14.1667H16.6667V15.0001C16.6667 15.4584 17.0417 15.8334 17.5001 15.8334C17.9584 15.8334 18.3334 15.4584 18.3334 15.0001V10.8334C18.3334 10.1001 18.0084 9.44175 17.5001 8.98342ZM11.6667 5.83341H15.0001C15.4584 5.83341 15.8334 6.20841 15.8334 6.66675V8.33342H10.8334V6.66675C10.8334 6.20841 11.2084 5.83341 11.6667 5.83341ZM4.16675 6.66675C4.16675 6.20841 4.54175 5.83341 5.00008 5.83341H8.33342C8.79175 5.83341 9.16675 6.20841 9.16675 6.66675V8.33342H4.16675V6.66675ZM3.33341 12.5001V10.8334C3.33341 10.3751 3.70841 10.0001 4.16675 10.0001H15.8334C16.2917 10.0001 16.6667 10.3751 16.6667 10.8334V12.5001H3.33341Z" fill="black"/>
</svg>
