<svg width="20" height="20" viewBox="0 0 20 20" fill="none" xmlns="http://www.w3.org/2000/svg">
<path d="M15.7667 5.00841C15.6 4.51675 15.1333 4.16675 14.5833 4.16675H5.41667C4.86667 4.16675 4.40833 4.51675 4.23333 5.00841L2.5 10.0001V16.6667C2.5 17.1251 2.875 17.5001 3.33333 17.5001H4.16667C4.625 17.5001 5 17.1251 5 16.6667V15.8334H15V16.6667C15 17.1251 15.375 17.5001 15.8333 17.5001H16.6667C17.125 17.5001 17.5 17.1251 17.5 16.6667V10.0001L15.7667 5.00841ZM5.70833 5.83341H14.2833L15.1833 8.42508H4.80833L5.70833 5.83341ZM15.8333 14.1667H4.16667V10.0001H15.8333V14.1667Z" fill="black"/>
<path d="M6.25 13.3333C6.94036 13.3333 7.5 12.7736 7.5 12.0833C7.5 11.3929 6.94036 10.8333 6.25 10.8333C5.55964 10.8333 5 11.3929 5 12.0833C5 12.7736 5.55964 13.3333 6.25 13.3333Z" fill="black"/>
<path d="M13.75 13.3333C14.4404 13.3333 15 12.7736 15 12.0833C15 11.3929 14.4404 10.8333 13.75 10.8333C13.0596 10.8333 12.5 11.3929 12.5 12.0833C12.5 12.7736 13.0596 13.3333 13.75 13.3333Z" fill="black"/>
</svg>
