<svg width="20" height="20" viewBox="0 0 20 20" fill="none" xmlns="http://www.w3.org/2000/svg">
<path d="M13.8342 3.54134C13.8342 3.2429 13.5923 3.00098 13.2939 3.00098L6.53932 3.00098C6.24088 3.00098 5.99896 3.2429 5.99896 3.54134C5.99896 3.83978 6.24088 4.0817 6.53932 4.0817L13.2939 4.0817C13.5923 4.0817 13.8342 3.83978 13.8342 3.54134Z" fill="black" stroke="black" stroke-width="0.2"/>
<path d="M13.8342 16.2938C13.8342 15.9953 13.5923 15.7534 13.2939 15.7534L6.53932 15.7534C6.24088 15.7534 5.99896 15.9953 5.99896 16.2938C5.99896 16.5922 6.24088 16.8341 6.53932 16.8341L13.2939 16.8341C13.5923 16.8341 13.8342 16.5922 13.8342 16.2938Z" fill="black" stroke="black" stroke-width="0.2"/>
<path d="M10.4571 12.4842L10.4571 5.45447L11.9918 7.00177C12.2019 7.21368 12.544 7.21508 12.7559 7.00491C12.9678 6.79482 12.9692 6.45266 12.7591 6.24073L11.0933 4.56122C10.7865 4.25189 10.3783 4.08154 9.94378 4.08154C9.5093 4.08154 9.10106 4.25189 8.79424 4.56122L7.12849 6.24073C7.02398 6.3461 6.97178 6.48367 6.97178 6.62122C6.97178 6.76026 7.02512 6.89927 7.13162 7.00491C7.34353 7.21506 7.68566 7.21368 7.89581 7.00177L9.3764 5.50897L9.3764 12.4842C9.3764 12.7826 9.61832 13.0246 9.91676 13.0246C10.2152 13.0246 10.4571 12.7826 10.4571 12.4842Z" fill="black" stroke="black" stroke-width="0.2"/>
<path d="M11.0933 15.2737L12.7591 13.5942C12.9692 13.3823 12.9678 13.0402 12.7559 12.8301C12.544 12.6199 12.2019 12.6213 11.9917 12.8332L10.326 14.5127C10.2237 14.6158 10.0879 14.6727 9.94377 14.6727C9.79966 14.6727 9.66389 14.6158 9.56157 14.5127L7.8958 12.8332C7.68565 12.6213 7.34352 12.6199 7.13161 12.8301C7.02508 12.9357 6.97177 13.0747 6.97177 13.2137C6.97177 13.3513 7.02397 13.4889 7.12848 13.5942L8.79426 15.2737C9.10105 15.5831 9.50929 15.7534 9.94377 15.7534C10.3783 15.7534 10.7865 15.5831 11.0933 15.2737Z" fill="black" stroke="black" stroke-width="0.2"/>
</svg>
