<svg xmlns="http://www.w3.org/2000/svg" xmlns:xlink="http://www.w3.org/1999/xlink" width="258.391" height="55.19" viewBox="0 0 258.391 55.19">
  <defs>
    <linearGradient id="linear-gradient" x1="0.125" y1="0.833" x2="0.751" y2="0.441" gradientUnits="objectBoundingBox">
      <stop offset="0" stop-color="#e95513"/>
      <stop offset="0.29" stop-color="#ec6d19"/>
      <stop offset="0.9" stop-color="#f5aa29"/>
      <stop offset="1" stop-color="#f7b52c"/>
    </linearGradient>
    <linearGradient id="linear-gradient-2" x1="-0.051" y1="1.043" x2="0.604" y2="0.712" xlink:href="#linear-gradient"/>
  </defs>
  <g id="Group_276" data-name="Group 276" transform="translate(-207 -58.646)">
    <g id="Group_240" data-name="Group 240">
      <g id="Group_170" data-name="Group 170" transform="translate(-8.404 -173.881)">
        <g id="Group_166" data-name="Group 166" transform="translate(272.061 249.708)">
          <path id="Path_567" data-name="Path 567" d="M265.312,267.374,254.6,249.556h7.563l6.342,11.782h.25l6.55-11.782h7.272L271.821,267.25v11.823h-6.508Z" transform="translate(-254.599 -249.556)"/>
          <path id="Path_568" data-name="Path 568" d="M296.118,267.237l-14.793.93c.208,3.275,2.123,4.76,6.2,4.76a18.975,18.975,0,0,0,7.6-1.61v4.843c-1.36.8-4.8,1.61-8.8,1.61-7.022,0-11.185-2.6-11.185-11.907s4.163-11.907,11.352-11.907c7.993,0,9.825,4.163,9.825,10.075A19.672,19.672,0,0,1,296.118,267.237Zm-5.4-4.08c0-2.512-.6-4.552-4.2-4.552-3.788,0-5.065,1.665-5.19,5.273Z" transform="translate(-246.631 -247.85)"/>
          <path id="Path_569" data-name="Path 569" d="M316.97,265.873c0,6.592-1.707,11.907-9.145,11.907-4.2,0-6.037-1.318-6.925-3.358v11.435h-6.161V254.4H300.9v2.762c.888-1.707,2.886-3.192,6.925-3.192C315.263,253.966,316.97,258.559,316.97,265.873Zm-6.3,0c0-4.2-.638-7.313-4.8-7.313-4.2,0-5.315,2.678-5.315,7.313,0,4.427,1.11,7.23,5.315,7.23C310.115,273.1,310.67,269.828,310.67,265.873Z" transform="translate(-239.036 -247.846)"/>
          <path id="Path_570" data-name="Path 570" d="M338,249.556v29.5h-3.872v-14.28H319.539v14.28h-3.83v-29.5h3.83v12.032h14.585V249.556Z" transform="translate(-230.905 -249.556)"/>
          <path id="Path_571" data-name="Path 571" d="M337.159,265.873c0-9.145,3.872-11.907,10.63-11.907,6.8,0,10.588,2.762,10.588,11.907s-3.789,11.907-10.588,11.907C341.031,277.779,337.159,275.018,337.159,265.873Zm17.347,0c0-6.717-1.707-8.84-6.717-8.84-5.148,0-6.717,2.123-6.717,8.84s1.749,8.8,6.717,8.8C352.979,274.685,354.506,272.589,354.506,265.873Z" transform="translate(-222.588 -247.846)"/>
          <path id="Path_572" data-name="Path 572" d="M389.461,261.5v15.862h-3.65V262.816c0-3.525-.985-5.565-4.427-5.565-2.678,0-4.968.763-5.953,4.038v16.07h-3.65V262.816c0-3.525-.847-5.565-4.2-5.565-2.845,0-4.926.638-6.078,4.163v15.945h-3.65V254.392h3.65v3.025c1.4-2.72,3.872-3.442,6.633-3.442,3.608,0,5.7,1.443,6.675,3.747,1.36-2.97,4.33-3.747,7.147-3.747C387.3,253.962,389.461,257.071,389.461,261.5Z" transform="translate(-214.566 -247.842)"/>
          <path id="Path_573" data-name="Path 573" d="M405.226,266.257l-15.556.985c.042,5.024,1.79,7.313,7.355,7.313a18.385,18.385,0,0,0,7.188-1.485v3.358a20.028,20.028,0,0,1-7.744,1.36c-6.758,0-10.63-2.762-10.63-11.907s3.872-11.907,10.422-11.907c7.827,0,9.187,5.148,9.187,9.617C405.434,264.217,405.35,265.189,405.226,266.257Zm-3.414-2.637c0-3.525-.6-6.633-5.565-6.633-5.273,0-6.467,2.845-6.592,7.521Z" transform="translate(-203.714 -247.842)"/>
        </g>
      </g>
      <g id="Group_239" data-name="Group 239" transform="translate(-193.7 19.246)">
        <path id="Path_680" data-name="Path 680" d="M407.091,89.661H400.7V64.1l17.9-17.9L439.3,67.036,434.83,71.51,418.6,55.276l-11.5,11.5Z" transform="translate(0 1.892)" fill="url(#linear-gradient)"/>
        <path id="Path_681" data-name="Path 681" d="M447.742,90.915H410.8V70.206l4.985-4.985,4.474,4.6-3.068,2.94v11.76h24.159V64.71L420.515,43.874l4.6-4.474,22.625,22.626Z" transform="translate(2.811)" fill="url(#linear-gradient-2)"/>
      </g>
    </g>
  </g>
</svg>
