<svg width="20" height="20" viewBox="0 0 20 20" fill="none" xmlns="http://www.w3.org/2000/svg">
<path d="M6.3 3.2C5.85817 3.2 5.5 3.55817 5.5 4C5.5 4.44183 5.85817 4.8 6.3 4.8L6.3 3.2ZM16 13.8824C16 14.3242 16.3582 14.6824 16.8 14.6824C17.2418 14.6824 17.6 14.3242 17.6 13.8824H16ZM14.3 17.5647C14.7419 17.5647 15.1 17.2065 15.1 16.7647C15.1 16.3229 14.7419 15.9647 14.3 15.9647V17.5647ZM4.8 7C4.8 6.55817 4.44183 6.2 4 6.2C3.55817 6.2 3.2 6.55817 3.2 7H4.8ZM10.3657 7.56569C10.6781 7.25327 10.6781 6.74673 10.3657 6.43431C10.0533 6.1219 9.54673 6.1219 9.23431 6.43431L10.3657 7.56569ZM6.23431 9.43431C5.9219 9.74673 5.9219 10.2533 6.23431 10.5657C6.54673 10.8781 7.05327 10.8781 7.36569 10.5657L6.23431 9.43431ZM14.1738 7.85155C14.4817 7.53463 14.4743 7.02815 14.1574 6.72029C13.8405 6.41243 13.334 6.41978 13.0262 6.73669L14.1738 7.85155ZM6.22618 13.7367C5.91832 14.0536 5.92566 14.5601 6.24257 14.8679C6.55949 15.1758 7.06596 15.1685 7.37382 14.8515L6.22618 13.7367ZM14.3657 11.5657C14.6781 11.2533 14.6781 10.7467 14.3657 10.4343C14.0533 10.1219 13.5467 10.1219 13.2343 10.4343L14.3657 11.5657ZM10.2343 13.4343C9.9219 13.7467 9.9219 14.2533 10.2343 14.5657C10.5467 14.8781 11.0533 14.8781 11.3657 14.5657L10.2343 13.4343ZM17.6 13.8824V5.8H16V13.8824H17.6ZM15 3.2L6.3 3.2L6.3 4.8L15 4.8L15 3.2ZM5.8 17.5647H14.3V15.9647H5.8V17.5647ZM4.8 14.9647V7H3.2V14.9647H4.8ZM9.23431 6.43431L6.23431 9.43431L7.36569 10.5657L10.3657 7.56569L9.23431 6.43431ZM13.0262 6.73669L6.22618 13.7367L7.37382 14.8515L14.1738 7.85155L13.0262 6.73669ZM13.2343 10.4343L10.2343 13.4343L11.3657 14.5657L14.3657 11.5657L13.2343 10.4343ZM5.8 15.9647C5.24772 15.9647 4.8 15.517 4.8 14.9647H3.2C3.2 16.4006 4.36406 17.5647 5.8 17.5647V15.9647ZM17.6 5.8C17.6 4.36406 16.4359 3.2 15 3.2L15 4.8C15.5523 4.8 16 5.24772 16 5.8H17.6Z" fill="black"/>
</svg>
