<svg width="20" height="20" viewBox="0 0 20 20" fill="none" xmlns="http://www.w3.org/2000/svg">
<path d="M3.54036 6C3.24192 6 3 6.24192 3 6.54036V13.2949C3 13.5933 3.24192 13.8353 3.54036 13.8353C3.83881 13.8353 4.08073 13.5933 4.08073 13.2949V6.54036C4.08073 6.24192 3.83881 6 3.54036 6Z" fill="black" stroke="black" stroke-width="0.2"/>
<path d="M16.2928 6C15.9944 6 15.7524 6.24192 15.7524 6.54036V13.2949C15.7524 13.5933 15.9944 13.8353 16.2928 13.8353C16.5912 13.8353 16.8332 13.5933 16.8332 13.2949V6.54036C16.8332 6.24192 16.5912 6 16.2928 6Z" fill="black" stroke="black" stroke-width="0.2"/>
<path d="M12.4832 9.3771H5.45349L7.0008 7.84247C7.2127 7.63232 7.21411 7.29019 7.00393 7.07829C6.79384 6.86644 6.45168 6.86498 6.23975 7.07515L4.56025 8.74093C4.25092 9.04772 4.08057 9.45597 4.08057 9.89045C4.08057 10.3249 4.25092 10.7332 4.56025 11.04L6.23975 12.7057C6.34512 12.8102 6.4827 12.8624 6.62025 12.8624C6.75928 12.8624 6.89829 12.8091 7.00393 12.7026C7.21408 12.4907 7.2127 12.1486 7.0008 11.9384L5.50799 10.4578H12.4832C12.7817 10.4578 13.0236 10.2159 13.0236 9.91746C13.0236 9.61902 12.7817 9.3771 12.4832 9.3771Z" fill="black" stroke="black" stroke-width="0.2"/>
<path d="M15.2728 8.74091L13.5933 7.07516C13.3814 6.86499 13.0392 6.86642 12.8291 7.0783C12.6189 7.2902 12.6203 7.63233 12.8322 7.84248L14.5117 9.50823C14.6149 9.61058 14.6717 9.74634 14.6717 9.89046C14.6717 10.0346 14.6149 10.1703 14.5117 10.2727L12.8322 11.9384C12.6203 12.1486 12.6189 12.4907 12.8291 12.7026C12.9347 12.8091 13.0737 12.8625 13.2128 12.8625C13.3503 12.8625 13.4879 12.8103 13.5933 12.7057L15.2728 11.04C15.5821 10.7332 15.7524 10.3249 15.7524 9.89046C15.7524 9.45598 15.5821 9.04773 15.2728 8.74091Z" fill="black" stroke="black" stroke-width="0.2"/>
</svg>
