<svg width="21" height="17" viewBox="0 0 21 17" fill="none" xmlns="http://www.w3.org/2000/svg">
<path d="M9.06 0.692383C8.50772 0.692383 8.06 1.1401 8.06 1.69238V2.07238C7.23 1.74238 6.34 1.57238 5.45 1.57238C3.97284 1.57238 2.49569 2.03546 1.25456 2.96724C0.812897 3.29882 0.816582 3.93897 1.20711 4.32949L3.71284 6.83523C3.78786 6.91024 3.8896 6.95238 3.99569 6.95238H4.94V7.8967C4.94 8.00278 4.98163 8.10519 5.05926 8.17749C5.90218 8.9626 6.97154 9.37466 8.05 9.42238V11.6924H6.06C5.50772 11.6924 5.06 12.1401 5.06 12.6924V14.6924C5.06 15.7924 5.96 16.6924 7.06 16.6924H17.06C18.72 16.6924 20.06 15.3524 20.06 13.6924V1.69238C20.06 1.1401 19.6123 0.692383 19.06 0.692383H9.06ZM6.95 7.10238V5.35238C6.95 5.13147 6.77091 4.95238 6.55 4.95238H4.67L3.63 3.91238C4.2 3.69238 4.82 3.57238 5.45 3.57238C6.79 3.57238 8.04 4.09238 8.99 5.03238L10.4 6.44238L10.2 6.64238C9.69 7.15238 9.01 7.44238 8.28 7.44238C7.81 7.44238 7.35 7.32238 6.95 7.10238ZM18.06 13.6924C18.06 14.2424 17.61 14.6924 17.06 14.6924C16.51 14.6924 16.06 14.2424 16.06 13.6924V12.6924C16.06 12.1401 15.6123 11.6924 15.06 11.6924H10.06V9.10238C10.63 8.87238 11.16 8.53238 11.62 8.07238L11.82 7.87238L14.3573 10.4007C14.5448 10.5875 14.7986 10.6924 15.0632 10.6924H16.06V9.69807C16.06 9.43198 15.954 9.17687 15.7653 8.98919L10.06 3.31238V2.69238H18.06V13.6924Z" fill="#00725B"/>
</svg>
