<svg width="14" height="11" viewBox="0 0 14 11" fill="none" xmlns="http://www.w3.org/2000/svg">
<path d="M12.3335 0.166992H1.66683C0.933496 0.166992 0.340163 0.766992 0.340163 1.50033L0.333496 9.50033C0.333496 10.2337 0.933496 10.8337 1.66683 10.8337H12.3335C13.0668 10.8337 13.6668 10.2337 13.6668 9.50033V1.50033C13.6668 0.766992 13.0668 0.166992 12.3335 0.166992ZM12.0668 3.00033L7.3535 5.94699C7.14016 6.08033 6.86016 6.08033 6.64683 5.94699L1.9335 3.00033C1.76683 2.89366 1.66683 2.71366 1.66683 2.52033C1.66683 2.07366 2.1535 1.80699 2.5335 2.04033L7.00016 4.83366L11.4668 2.04033C11.8468 1.80699 12.3335 2.07366 12.3335 2.52033C12.3335 2.71366 12.2335 2.89366 12.0668 3.00033Z" fill="#DA552F"/>
</svg>
