<svg width="32" height="33" viewBox="0 0 32 33" fill="none" xmlns="http://www.w3.org/2000/svg">
<path d="M16 0.59668C7.16481 0.59668 0 7.76149 0 16.5967C0 25.4319 7.16481 32.5967 16 32.5967C24.8352 32.5967 32 25.4319 32 16.5967C32 7.76149 24.8352 0.59668 16 0.59668ZM25.1321 20.3845C25.0877 21.3626 24.9321 22.0303 24.7051 22.6147C24.469 23.2251 24.1081 23.7793 23.6454 24.2421C23.1827 24.7048 22.6284 25.0657 22.0181 25.3017C21.4338 25.5288 20.7659 25.6841 19.7881 25.7287C18.8084 25.7734 18.4954 25.7842 16.0002 25.7842C13.5049 25.7842 13.1921 25.7734 12.2121 25.7287C11.2344 25.6841 10.5664 25.5288 9.98213 25.3017C9.36901 25.0711 8.81363 24.7094 8.35475 24.2419C7.88742 23.783 7.52583 23.2277 7.29519 22.6147C7.06812 22.0305 6.91262 21.3626 6.86819 20.3847C6.823 19.4047 6.8125 19.0918 6.8125 16.5967C6.8125 14.1016 6.823 13.7886 6.86794 12.8089C6.91231 11.8308 7.06762 11.1631 7.29469 10.5786C7.5254 9.96555 7.88715 9.41023 8.35469 8.95143C8.81351 8.48394 9.36885 8.12225 9.98194 7.89162C10.5664 7.66455 11.2341 7.5093 12.2122 7.46462C13.1919 7.41993 13.5049 7.40918 16 7.40918C18.4951 7.40918 18.8081 7.41993 19.7878 7.4648C20.7659 7.5093 21.4336 7.66455 22.0181 7.89137C22.6312 8.12213 23.1866 8.48387 23.6456 8.95137C24.1129 9.41025 24.4745 9.96558 24.7051 10.5786C24.9324 11.1631 25.0876 11.8308 25.1323 12.8089C25.177 13.7886 25.1875 14.1016 25.1875 16.5967C25.1875 19.0918 25.177 19.4048 25.1321 20.3845Z" fill="#CDCDCD"/>
</svg>
