<svg width="18" height="18" viewBox="0 0 18 18" fill="none" xmlns="http://www.w3.org/2000/svg">
<path d="M9 0.25C4.16797 0.25 0.25 4.16797 0.25 9C0.25 13.832 4.16797 17.75 9 17.75C13.832 17.75 17.75 13.832 17.75 9C17.75 4.16797 13.832 0.25 9 0.25ZM6.08008 2.08789C6.61523 1.86328 7.16992 1.70117 7.73828 1.60547C7.00391 2.16406 6.35547 2.83398 5.81055 3.59375C5.38477 3.41406 4.9707 3.19531 4.57617 2.94141C5.04102 2.59961 5.54492 2.31445 6.08008 2.08789ZM2.08984 6.08008C2.4668 5.1875 3.00781 4.38672 3.69727 3.69727L3.71484 3.67969C4.18945 4.00977 4.69531 4.29297 5.22266 4.52734C4.55859 5.73438 4.17383 7.06836 4.09375 8.45312H1.51953C1.57812 7.63281 1.76953 6.83789 2.08984 6.08008ZM3.69727 14.3027C3.00781 13.6133 2.4668 12.8125 2.08984 11.9199C1.76953 11.1621 1.57812 10.3672 1.51953 9.54688H4.09375C4.17383 10.9297 4.55859 12.2656 5.22266 13.4707C4.69531 13.7051 4.19141 13.9902 3.71484 14.3203L3.69727 14.3027ZM6.08008 15.9102C5.54492 15.6855 5.04297 15.3984 4.57812 15.0586C4.97266 14.8047 5.38477 14.5879 5.81055 14.4062C6.35547 15.168 7.00391 15.8359 7.73633 16.3945C7.16797 16.2988 6.61523 16.1367 6.08008 15.9102ZM8.45312 15.5684C7.86133 15.127 7.33594 14.6113 6.89062 14.0371C7.39844 13.9043 7.91992 13.8184 8.45312 13.7832V15.5684ZM8.45312 9.54688V12.6875C7.70312 12.7305 6.9668 12.8633 6.25195 13.084C5.64453 12.0215 5.27344 10.8164 5.18945 9.54492H8.45312V9.54688ZM8.45312 8.45312H5.18945C5.27344 7.18359 5.64453 5.97852 6.25391 4.91602C6.9668 5.13672 7.70312 5.26953 8.45312 5.3125V8.45312ZM8.45312 4.2168C7.91992 4.18164 7.39844 4.09766 6.89258 3.96289C7.33789 3.38867 7.86328 2.87305 8.45312 2.43164V4.2168ZM14.3027 3.69922C14.9922 4.38672 15.5332 5.1875 15.9102 6.08008C16.2305 6.83789 16.4219 7.63281 16.4805 8.45312H13.9062C13.8262 7.06836 13.4414 5.73438 12.7773 4.5293C13.3047 4.29492 13.8086 4.01172 14.2852 3.68164L14.3027 3.69922ZM11.918 2.08984C12.4551 2.31445 12.957 2.60156 13.4219 2.94141C13.0273 3.19531 12.6152 3.41406 12.1875 3.59375C11.6719 2.87305 11.0566 2.23047 10.3594 1.68359C10.3262 1.65625 10.291 1.63086 10.2578 1.60547C10.8262 1.70117 11.3828 1.86328 11.918 2.08984ZM9.54688 2.44141C10.1289 2.88086 10.6484 3.39648 11.0918 3.9668C10.5898 4.09766 10.0742 4.18164 9.54688 4.2168V2.44141ZM9.54688 5.3125C10.291 5.26953 11.0215 5.13867 11.7305 4.91992C12.3438 5.98633 12.7227 7.19336 12.8086 8.45312H9.54688V5.3125ZM9.54688 9.54688H12.8105C12.7266 10.8184 12.3555 12.0215 11.748 13.0859C11.0332 12.8652 10.2969 12.7324 9.54688 12.6895V9.54688ZM9.54688 13.7852C10.0742 13.8203 10.5977 13.9082 11.1055 14.043C10.6602 14.6152 10.1367 15.1309 9.54688 15.5703V13.7852ZM11.9219 15.9102C11.3848 16.1367 10.8301 16.2988 10.2637 16.3945C10.9941 15.8359 11.6426 15.1699 12.1875 14.4102C12.6152 14.5898 13.0293 14.8066 13.4238 15.0586C12.959 15.3984 12.457 15.6836 11.9219 15.9102ZM15.9102 11.9199C15.5332 12.8125 14.9922 13.6133 14.3027 14.3027L14.2852 14.3203C13.8086 13.9902 13.3047 13.707 12.7773 13.4727C13.4414 12.2656 13.8262 10.9316 13.9062 9.54688H16.4805C16.4219 10.3672 16.2305 11.1621 15.9102 11.9199Z" fill="#222222"/>
</svg>
