<svg width="203" height="39" viewBox="0 0 203 39" fill="none" xmlns="http://www.w3.org/2000/svg">
<path d="M11.6745 17.903L0.962509 0.0849609H8.5255L14.8675 11.867H15.1175L21.6675 0.0849609H28.9395L18.1835 17.779V29.602H11.6755L11.6745 17.903Z" fill="#222222"/>
<path d="M50.4485 19.4719L35.6555 20.4019C35.8635 23.6769 37.7785 25.1619 41.8555 25.1619C44.4728 25.1551 47.0603 24.607 49.4555 23.5519V28.3949C48.0955 29.1949 44.6555 30.0049 40.6555 30.0049C33.6335 30.0049 29.4705 27.4049 29.4705 18.0979C29.4705 8.79093 33.6335 6.19092 40.8225 6.19092C48.8155 6.19092 50.6475 10.3539 50.6475 16.2659C50.6687 17.3382 50.6021 18.4105 50.4485 19.4719ZM45.0485 15.3919C45.0485 12.8799 44.4485 10.8399 40.8485 10.8399C37.0605 10.8399 35.7835 12.5049 35.6585 16.1129L45.0485 15.3919Z" fill="#222222"/>
<path d="M78.8955 18.112C78.8955 24.704 77.1885 30.019 69.7505 30.019C65.5505 30.019 63.7135 28.701 62.8255 26.661V38.096H56.6645V6.63898H62.8255V9.40097C63.7135 7.69397 65.7115 6.20899 69.7505 6.20899C77.1885 6.20499 78.8955 10.798 78.8955 18.112ZM72.5955 18.112C72.5955 13.912 71.9575 10.799 67.7955 10.799C63.5955 10.799 62.4805 13.477 62.4805 18.112C62.4805 22.539 63.5905 25.342 67.7955 25.342C72.0405 25.339 72.5955 22.067 72.5955 18.112Z" fill="#222222"/>
<path d="M108.057 0.0849609V29.585H104.184V15.305H89.5955V29.585H85.7655V0.0849609H89.5955V12.117H104.18V0.0849609H108.057Z" fill="#222222"/>
<path d="M115.533 18.1121C115.533 8.96706 119.405 6.20508 126.163 6.20508C132.963 6.20508 136.751 8.96706 136.751 18.1121C136.751 27.2571 132.962 30.0191 126.163 30.0191C119.405 30.0181 115.533 27.2571 115.533 18.1121ZM132.88 18.1121C132.88 11.3951 131.173 9.27206 126.163 9.27206C121.015 9.27206 119.445 11.3951 119.445 18.1121C119.445 24.8291 121.195 26.9121 126.163 26.9121C131.353 26.9241 132.88 24.8281 132.88 18.1121Z" fill="#222222"/>
<path d="M175.857 13.7431V29.6051H172.207V15.0591C172.207 11.5341 171.222 9.49406 167.78 9.49406C165.102 9.49406 162.812 10.2571 161.827 13.5321V29.6021H158.177V15.0591C158.177 11.5341 157.33 9.49406 153.977 9.49406C151.132 9.49406 149.05 10.1321 147.898 13.6571V29.6021H144.249V6.63505H147.898V9.66004C149.298 6.94004 151.77 6.21806 154.531 6.21806C158.139 6.21806 160.232 7.66104 161.207 9.96504C162.567 6.99504 165.537 6.21806 168.354 6.21806C173.696 6.20506 175.857 9.31405 175.857 13.7431Z" fill="#222222"/>
<path d="M202.474 18.5L186.918 19.485C186.96 24.509 188.707 26.798 194.272 26.798C196.744 26.7912 199.189 26.2862 201.461 25.313V28.6711C198.994 29.6316 196.362 30.0938 193.716 30.031C186.958 30.031 183.086 27.2691 183.086 18.1241C183.086 8.97905 186.958 6.21704 193.508 6.21704C201.335 6.21704 202.695 11.365 202.695 15.834C202.681 16.46 202.598 17.432 202.474 18.5ZM199.06 15.863C199.06 12.338 198.46 9.23004 193.495 9.23004C188.222 9.23004 187.027 12.075 186.902 16.751L199.06 15.863Z" fill="#222222"/>
</svg>
