<svg width="17" height="20" viewBox="0 0 17 20" fill="none" xmlns="http://www.w3.org/2000/svg">
<path d="M8.5 20C9.46404 20 10.2745 19.3087 10.4601 18.3974C10.5042 18.1809 10.3209 18 10.1 18H6.9C6.67909 18 6.49584 18.1809 6.53992 18.3974C6.72553 19.3087 7.53596 20 8.5 20ZM14.5 14V9C14.5 5.93 12.87 3.36 10 2.68V2C10 1.17 9.33 0.5 8.5 0.5C7.67 0.5 7 1.17 7 2V2.68C4.14 3.36 2.5 5.92 2.5 9V14L0.788788 15.7112C0.60388 15.8961 0.5 16.1469 0.5 16.4084C0.5 16.7351 0.764864 17 1.09159 17H15.9084C16.2351 17 16.5 16.7351 16.5 16.4084C16.5 16.1469 16.3961 15.8961 16.2112 15.7112L14.5 14ZM12.5 15H4.5V9C4.5 6.52 6.01 4.5 8.5 4.5C10.99 4.5 12.5 6.52 12.5 9V15Z" fill="white"/>
</svg>
