<svg width="262" height="369" viewBox="0 0 262 369" fill="none" xmlns="http://www.w3.org/2000/svg">
<g filter="url(#filter0_d)">
<rect x="11" y="15" width="240" height="339" rx="20" fill="#ED320A"/>
</g>
<path fill-rule="evenodd" clip-rule="evenodd" d="M131.619 15C146.991 15 159.454 9.62742 159.454 3C159.454 1.9641 159.149 0.95886 158.577 0H231C242.046 0 251 8.95431 251 20V319C251 330.046 242.046 339 231 339H31C19.9543 339 11 330.046 11 319V20C11 8.9543 19.9543 0 31 0H104.66C104.088 0.95886 103.784 1.9641 103.784 3C103.784 9.62742 116.246 15 131.619 15Z" fill="url(#paint0_linear)"/>
<defs>
<filter id="filter0_d" x="0" y="8" width="262" height="361" filterUnits="userSpaceOnUse" color-interpolation-filters="sRGB">
<feFlood flood-opacity="0" result="BackgroundImageFix"/>
<feColorMatrix in="SourceAlpha" type="matrix" values="0 0 0 0 0 0 0 0 0 0 0 0 0 0 0 0 0 0 127 0" result="hardAlpha"/>
<feOffset dy="4"/>
<feGaussianBlur stdDeviation="5.5"/>
<feComposite in2="hardAlpha" operator="out"/>
<feColorMatrix type="matrix" values="0 0 0 0 0.379167 0 0 0 0 0.0726736 0 0 0 0 0.0726736 0 0 0 0.25 0"/>
<feBlend mode="normal" in2="BackgroundImageFix" result="effect1_dropShadow"/>
<feBlend mode="normal" in="SourceGraphic" in2="effect1_dropShadow" result="shape"/>
</filter>
<linearGradient id="paint0_linear" x1="131" y1="0" x2="131" y2="339" gradientUnits="userSpaceOnUse">
<stop stop-color="#F5A587"/>
<stop offset="1" stop-color="#F45D3C"/>
</linearGradient>
</defs>
</svg>
