<svg width="30" height="30" viewBox="0 0 30 30" fill="none" xmlns="http://www.w3.org/2000/svg">
<path d="M4.95905 4.95905L4.95905 4.95905C2.27734 7.64081 0.8 11.2074 0.8 15C0.8 18.7926 2.27734 22.3592 4.95905 25.041L5.10047 24.8995L4.95905 25.041C7.64081 27.7227 11.2074 29.2 15 29.2C18.7926 29.2 22.3592 27.7227 25.041 25.041C27.7227 22.3592 29.2 18.7926 29.2 15C29.2 11.2074 27.7227 7.64081 25.041 4.95905C22.3592 2.27729 18.7926 0.8 15 0.8C11.2074 0.8 7.64081 2.27729 4.95905 4.95905ZM15 27.1594C8.29546 27.1594 2.84063 21.7045 2.84063 15C2.84063 8.29546 8.29546 2.84063 15 2.84063C21.7045 2.84063 27.1594 8.29546 27.1594 15C27.1594 21.7045 21.7045 27.1594 15 27.1594Z" fill="#C7581A" stroke="#C7581A" stroke-width="0.4"/>
<path d="M15.8787 13.9797H14.1214C13.2306 13.9797 12.5057 13.2548 12.5057 12.3642C12.5057 11.4735 13.2307 10.7485 14.1214 10.7485H17.636C18.1995 10.7485 18.6563 10.2917 18.6563 9.72822C18.6563 9.16473 18.1995 8.70791 17.636 8.70791H16.0203V7.09229C16.0203 6.5288 15.5635 6.07197 15 6.07197C14.4365 6.07197 13.9797 6.5288 13.9797 7.09229V8.71062C12.0289 8.78531 10.4652 10.3954 10.4652 12.3642C10.4652 14.3804 12.1052 16.0204 14.1214 16.0204H15.8787C16.7694 16.0204 17.4943 16.7453 17.4943 17.636C17.4943 18.5266 16.7694 19.2516 15.8787 19.2516H12.3641C11.8007 19.2516 11.3438 19.7084 11.3438 20.2719C11.3438 20.8354 11.8007 21.2922 12.3641 21.2922H13.9797V22.9079C13.9797 23.4714 14.4365 23.9282 15 23.9282C15.5635 23.9282 16.0203 23.4714 16.0203 22.9079V21.2895C17.9712 21.2149 19.5349 19.6048 19.5349 17.636C19.5349 15.6198 17.8949 13.9797 15.8787 13.9797Z" fill="#C7581A" stroke="#C7581A" stroke-width="0.4"/>
</svg>
