<svg width="23" height="5" viewBox="0 0 23 5" fill="none" xmlns="http://www.w3.org/2000/svg">
<path d="M0 2.27051C0 1.59668 0.224609 1.0498 0.673828 0.629883C1.13281 0.209961 1.7041 0 2.3877 0C3.08105 0 3.65234 0.209961 4.10156 0.629883C4.56055 1.0498 4.79004 1.59668 4.79004 2.27051C4.79004 2.93457 4.56543 3.47656 4.11621 3.89648C3.66699 4.30664 3.09082 4.51172 2.3877 4.51172C1.69434 4.51172 1.12305 4.30664 0.673828 3.89648C0.224609 3.47656 0 2.93457 0 2.27051Z" fill="white"/>
<path d="M8.73047 2.27051C8.73047 1.59668 8.95508 1.0498 9.4043 0.629883C9.86328 0.209961 10.4346 0 11.1182 0C11.8115 0 12.3828 0.209961 12.832 0.629883C13.291 1.0498 13.5205 1.59668 13.5205 2.27051C13.5205 2.93457 13.2959 3.47656 12.8467 3.89648C12.3975 4.30664 11.8213 4.51172 11.1182 4.51172C10.4248 4.51172 9.85352 4.30664 9.4043 3.89648C8.95508 3.47656 8.73047 2.93457 8.73047 2.27051Z" fill="white"/>
<path d="M17.4609 2.27051C17.4609 1.59668 17.6855 1.0498 18.1348 0.629883C18.5938 0.209961 19.165 0 19.8486 0C20.542 0 21.1133 0.209961 21.5625 0.629883C22.0215 1.0498 22.251 1.59668 22.251 2.27051C22.251 2.93457 22.0264 3.47656 21.5771 3.89648C21.1279 4.30664 20.5518 4.51172 19.8486 4.51172C19.1553 4.51172 18.584 4.30664 18.1348 3.89648C17.6855 3.47656 17.4609 2.93457 17.4609 2.27051Z" fill="white"/>
</svg>
