<svg width="9" height="14" viewBox="0 0 9 14" fill="none" xmlns="http://www.w3.org/2000/svg">
<path d="M4.05677 13.2727H4.87211V12.1641C6.96018 12.0199 8.13348 10.7869 8.13348 9.23581C8.13348 7.32672 6.32382 6.71024 5.26984 6.43184L4.87211 6.32246V2.78766C5.92609 2.89206 6.69172 3.45882 6.80109 4.36365H7.99427C7.94456 2.91195 6.67183 1.80826 4.87211 1.68894V0.545471H4.05677V1.70385C2.35152 1.87786 1.07382 2.96166 1.07382 4.52274C1.07382 5.8949 2.06814 6.71024 3.65905 7.16763L4.05677 7.28198V11.0455C3.01274 10.9361 2.15763 10.3992 2.06814 9.37502H0.79541C0.909757 10.9411 2.10294 12.0348 4.05677 12.1641V13.2727ZM4.87211 11.0455V7.51564L4.91189 7.52559C5.98575 7.82388 6.9403 8.20172 6.9403 9.21593C6.9403 10.2152 6.07524 10.9112 4.87211 11.0455ZM4.05677 6.10371C3.30109 5.88993 2.267 5.47232 2.267 4.46308C2.267 3.603 2.96302 2.94675 4.05677 2.80257V6.10371Z" fill="#FF5B23"/>
</svg>
