<svg width="30" height="30" viewBox="0 0 30 30" fill="none" xmlns="http://www.w3.org/2000/svg">
<path d="M3.10987 15.4664L3.10996 15.4665C3.24473 15.6014 3.42427 15.6776 3.61708 15.681L3.10987 15.4664ZM3.10987 15.4664C2.82359 15.1801 2.82264 14.7142 3.10724 14.4265C3.10936 14.4245 3.11135 14.4225 3.11323 14.4205L14.5323 3.00187L14.5324 3.00178M3.10987 15.4664L14.5324 3.00178M14.5324 3.00178C14.6717 2.86229 14.856 2.78594 15.0533 2.78594C15.2504 2.78594 15.4348 2.86226 15.5744 3.00187L26.9932 14.4205L26.9985 14.4256L26.9992 14.4263C27.2839 14.7143 27.2828 15.1803 26.9968 15.4666C26.8572 15.6062 26.6726 15.6827 26.4756 15.6827M14.5324 3.00178L26.4756 15.6827M26.4756 15.6827H25.2331C24.6696 15.6827 24.2128 16.1395 24.2128 16.703V25.9286C24.2128 26.5769 23.685 27.1047 23.0364 27.1047H19.5882M26.4756 15.6827L19.5882 27.1047M19.5882 27.1047V21.5352C19.5882 19.7613 18.1453 18.3182 16.3712 18.3182H13.7355C11.9613 18.3182 10.5183 19.7612 10.5183 21.5352V27.1047H7.07002C6.42164 27.1047 5.89364 26.5769 5.89364 25.9286V16.703C5.89364 16.1395 5.43688 15.6827 4.87333 15.6827H3.65866C3.64577 15.6819 3.63195 15.6813 3.61719 15.681C3.61723 15.681 3.61726 15.681 3.6173 15.681L19.5882 27.1047ZM28.4392 12.9804L28.4314 12.9726L28.4313 12.9725L17.0174 1.55908C16.4931 1.03448 15.7949 0.745312 15.0533 0.745312C14.3118 0.745312 13.6136 1.03449 13.0891 1.55905L1.67325 12.9747L1.67267 12.9752C1.66958 12.9783 1.6647 12.9832 1.65973 12.9884C0.583875 14.0722 0.586191 15.8288 1.66662 16.9092C2.15913 17.4019 2.80955 17.6878 3.50455 17.7191C3.53561 17.7219 3.5667 17.7233 3.598 17.7233H3.85301V25.9286C3.85301 27.7025 5.29609 29.1454 7.07002 29.1454H11.5386C12.1022 29.1454 12.5589 28.6884 12.5589 28.1251V21.5352C12.5589 20.8867 13.0869 20.3588 13.7355 20.3588H16.3712C17.0197 20.3588 17.5476 20.8867 17.5476 21.5352V28.1251C17.5476 28.6884 18.0043 29.1454 18.5679 29.1454H23.0364C24.8106 29.1454 26.2535 27.7025 26.2535 25.9286V17.7233H26.4756C27.2169 17.7233 27.9151 17.4342 28.4398 16.9094L28.4399 16.9094C29.5219 15.8268 29.5224 14.0659 28.4415 12.9827L28.4394 12.9806C28.4394 12.9806 28.4393 12.9805 28.4392 12.9804ZM3.1103 14.4235L3.11093 14.4228C3.11072 14.423 3.11051 14.4232 3.1103 14.4235Z" fill="#C7581A" stroke="#C7581A" stroke-width="0.4"/>
</svg>
