<svg width="290" height="32" viewBox="0 0 290 32" fill="none" xmlns="http://www.w3.org/2000/svg">
<path fill-rule="evenodd" clip-rule="evenodd" d="M8.0731 0.39917L12.5978 1.87998H29.33V14.2H23.06V14.9H30.8V20.14H25.8018C27.3658 22.0301 29.2987 23.7224 31.1739 24.8162L32.392 25.5268L31.3185 26.4412C30.5714 27.0776 29.5023 28.2637 28.9948 29.065L28.4298 29.9571L27.5698 29.3445C25.9977 28.2246 24.4457 26.6981 23.06 24.9729V30.61H17.46V24.9396C15.9563 26.6775 14.2701 28.1818 12.5224 29.3101L11.6672 29.8622L11.1304 28.9973C10.907 28.6375 10.5653 28.1861 10.19 27.743V30.55H4.8V16.6229C4.61534 16.8274 4.4289 17.0278 4.24032 17.2236L3.14502 18.361L2.585 16.8846C2.28238 16.0868 1.32924 14.2388 0.776788 13.4377L0.295898 12.7404L0.904579 12.1514C3.57507 9.56704 6.22729 5.43966 7.74098 1.30612L8.0731 0.39917ZM4.8 15.0987C5.13508 14.6993 5.46754 14.2855 5.8 13.86V29.55H9.19V8.63998C10.0911 7.03805 10.8878 5.35259 11.58 3.70556C11.5867 3.68965 11.5934 3.67373 11.6 3.65782C11.7092 3.39739 11.8158 3.13795 11.9198 2.87998C11.9399 2.82993 11.96 2.77993 11.98 2.72998L8.68 1.64998C7.12 5.90998 4.39 10.17 1.6 12.87C2.02272 13.4829 2.63903 14.6171 3.08172 15.538C3.26738 15.9242 3.4225 16.2729 3.52 16.53C3.77159 16.2687 4.02006 15.9981 4.26641 15.7191C4.44526 15.5166 4.623 15.3096 4.8 15.0987ZM11.58 6.16966C11.1491 7.08806 10.6858 8.00492 10.19 8.90015V14.9H17.46V14.2H11.58V6.16966ZM10.19 20.14V24.0779C11.8044 23.0534 13.3756 21.6731 14.6993 20.14H10.19ZM16.75 19.14C16.5123 19.4773 16.2615 19.8112 15.999 20.14C14.441 22.0915 12.4744 23.8626 10.4396 25.1001C10.3565 25.1506 10.2733 25.2003 10.19 25.249C9.96717 25.3794 9.74369 25.5032 9.52 25.62C9.72841 25.7975 9.95669 26.0148 10.19 26.2544C10.2199 26.285 10.2498 26.3161 10.2798 26.3474C10.8592 26.9532 11.4577 27.6819 11.8516 28.2712C11.8973 28.3394 11.9402 28.4059 11.98 28.47C12.2566 28.2914 12.532 28.1026 12.8056 27.9042C14.466 26.7002 16.0601 25.1429 17.46 23.3706C17.8058 22.9328 18.1398 22.4819 18.46 22.02V29.61H22.06V21.87C22.3778 22.3662 22.7121 22.8541 23.06 23.3296C24.3562 25.1017 25.8398 26.7025 27.3514 27.923C27.617 28.1374 27.8835 28.3402 28.15 28.53C28.2876 28.3127 28.4585 28.0744 28.6499 27.8282C29.0238 27.3473 29.4761 26.8363 29.9125 26.3928C30.178 26.1229 30.4376 25.878 30.67 25.68C30.3758 25.5084 30.0807 25.3232 29.7863 25.1259C27.8837 23.8513 26.0048 22.0691 24.523 20.14C24.2698 19.8103 24.0282 19.4764 23.8 19.14H29.8V15.9H22.06V13.2H28.33V2.87998H12.58V13.2H18.46V15.9H10.6V19.14H16.75ZM23.76 7.02998H16.97V9.04998H23.76V7.02998ZM41.46 7.2142L38.8742 9.79998H40.25V19.4707L42.1119 17.8916L42.5714 19.3122C42.6596 19.5847 42.7734 19.8894 42.9 20.1997V10.61H48.44V24.17H49.29V7.80998H41.46V7.2142ZM41.46 5.93188C40.3337 4.55087 38.0678 2.60343 36.4332 1.26603L35.7469 0.704444L32.054 4.25148L32.8487 4.97119C34.4581 6.4287 36.5338 8.39788 37.4213 9.61815L37.5535 9.79998H31.26V15.22H34.77V22.86C34.77 24.2962 33.8795 25.4889 33.2643 26.0528L32.3981 26.8468L33.3204 27.5749C33.5552 27.7603 33.9541 28.1289 34.3469 28.5431C34.7525 28.9708 35.0689 29.361 35.1994 29.592L35.9684 30.9525L36.8815 29.6843C37.0835 29.4038 37.3947 29.0604 38.3899 28.1624C38.9359 27.6698 39.6701 27.0255 40.68 26.1489V29.5H61.01V24.17H54.95V17.86H59.84V12.53H54.95V7.80998H60.41V2.47998H41.46V5.93188ZM40.68 24.8256C40.9193 24.6184 41.1718 24.4001 41.4381 24.17C41.885 23.7838 42.371 23.3644 42.9 22.908C42.9529 22.8624 43.0062 22.8164 43.06 22.77C43.0091 22.6919 42.9555 22.6043 42.9 22.5087C42.6117 22.0123 42.272 21.3026 41.9904 20.6171C41.847 20.268 41.7187 19.9252 41.62 19.62L39.25 21.63V10.8H32.26V14.22H35.77V22.86C35.77 24.1704 35.2009 25.2808 34.6133 26.048C34.3803 26.3523 34.1444 26.6026 33.94 26.79C34.1362 26.9449 34.4036 27.1852 34.6858 27.4618C34.9417 27.7128 35.2099 27.9937 35.4482 28.268C35.7102 28.5695 35.9361 28.863 36.07 29.1C36.2278 28.8809 36.424 28.6515 36.7588 28.3191C37.3787 27.7038 38.4738 26.7354 40.68 24.8256ZM41.68 25.17V28.5H60.01V25.17H53.95V16.86H58.84V13.53H53.95V6.80998H59.41V3.47998H42.46V6.80998H50.29V25.17H47.44V11.61H43.9V25.17H41.68ZM35.8 2.03998C37.45 3.38998 39.64 5.27998 40.69 6.56998L38.23 9.02998C38.0556 8.79018 37.8416 8.52661 37.5986 8.24719C36.7024 7.21675 35.412 5.97078 34.2595 4.90621C34.0043 4.67047 33.7559 4.44362 33.52 4.22998L35.8 2.03998ZM90.74 9.84998H78.77V11H88.22V22.14C88.22 23.0433 88.1289 23.8965 87.7966 24.6275C87.4426 25.4063 86.8533 25.965 86.032 26.3256L86.0239 26.3292C84.5397 26.9652 82.6086 27.01 80.32 27.01H79.4563L79.3306 26.1555C79.2507 25.6122 79.0335 24.8688 78.77 24.1725V30.64H73.05V16.48H69.8V27.01H64.2V11H73.05V9.84998H61.38V4.36998H73.02V0.469983H78.83V4.36998H90.74V9.84998ZM77.77 15.48H83.5V22.08C83.5 22.41 83.35 22.56 82.87 22.56C82.508 22.56 81.4121 22.56 80.2517 22.5342C79.8736 22.5259 79.4887 22.5147 79.12 22.5C79.277 22.7955 79.4368 23.145 79.5873 23.5171C79.9255 24.3536 80.2162 25.304 80.32 26.01C82.66 26.01 84.37 25.95 85.63 25.41C86.86 24.87 87.22 23.85 87.22 22.14V12H77.77V8.84998H89.74V5.36998H77.83V1.46998H74.02V5.36998H62.38V8.84998H74.05V12H65.2V26.01H68.8V15.48H74.05V29.64H77.77V15.48ZM82.5 16.48H78.77V21.4852L79.16 21.5008C80.3738 21.5493 81.7726 21.5581 82.5 21.5596V16.48ZM116.558 5.33085C114.658 7.02668 112.695 8.58887 110.781 9.94998C110.294 10.2967 109.809 10.6304 109.33 10.95H119.71C119.71 10.95 119.696 11.4755 119.667 11.95C119.655 12.1651 119.639 12.3696 119.62 12.51C119.02 22.74 118.42 26.64 117.37 27.93C116.65 28.86 115.93 29.19 114.94 29.31C114.1 29.46 112.81 29.49 111.4 29.43C111.38 28.7679 111.199 27.918 110.92 27.1495C110.781 26.7688 110.619 26.408 110.44 26.1C110.848 26.143 111.245 26.1744 111.611 26.1971C112.267 26.2376 112.823 26.25 113.17 26.25C113.65 26.25 113.95 26.13 114.25 25.74C114.909 25.0523 115.459 22.2029 115.899 15.31C115.919 14.9857 115.94 14.6524 115.96 14.31H114.91C113.754 18.5176 112.047 22.1264 109.835 25.0307C109.613 25.321 109.387 25.6042 109.156 25.8803C108.039 27.2143 106.805 28.3815 105.46 29.37C105.085 29.0343 104.359 28.4908 103.693 28.0386C103.346 27.8038 103.016 27.5936 102.76 27.45C103.073 27.2539 103.379 27.0484 103.677 26.8337C107.331 24.2046 109.858 20.2051 111.377 15.31C111.479 14.9807 111.577 14.6473 111.67 14.31H109.96C108.7 18.03 106.51 21.12 103.84 23.1C103.728 22.997 103.589 22.8794 103.433 22.7535C103.242 22.5989 103.024 22.4318 102.798 22.2642C102.618 22.1312 102.433 21.9978 102.25 21.87L102.34 22.35C102.142 22.431 101.943 22.5124 101.743 22.594C99.1128 23.6678 96.3214 24.785 93.9442 25.7087C93.6249 25.8328 93.313 25.9534 93.01 26.07L91.84 22.4401C92.1441 22.3532 92.4632 22.2562 92.7974 22.1506C93.5928 21.8995 94.4737 21.5996 95.4401 21.2706L95.53 21.24V12.09H92.29V8.69998H95.53V1.97998H98.86V8.69998H101.83V12.09H98.86V20.1L101.65 19.11L101.98 20.73C102.041 20.6831 102.102 20.6357 102.162 20.5877C102.398 20.3995 102.628 20.2027 102.851 19.9977C104.251 18.714 105.397 17.1099 106.198 15.3104C106.232 15.2323 106.267 15.1538 106.3 15.075C106.407 14.8235 106.507 14.5684 106.6 14.31H106.3C106.04 14.31 105.778 14.3174 105.523 14.3321C105.161 14.3532 104.815 14.3892 104.518 14.4403C104.084 14.5149 103.755 14.6214 103.63 14.76C103.543 14.5179 103.409 14.179 103.252 13.8007C103.122 13.4874 102.977 13.1471 102.83 12.8124C102.763 12.659 102.695 12.5068 102.628 12.359C102.587 12.2674 102.546 12.1775 102.505 12.09C102.393 11.8459 102.285 11.6205 102.19 11.43C102.391 11.3953 102.606 11.3332 102.83 11.2495C102.935 11.2103 103.042 11.1664 103.151 11.1182C103.818 10.8247 104.557 10.3754 105.31 9.89998C105.931 9.49394 107.351 8.53644 108.933 7.29998C109.338 6.98341 109.754 6.64855 110.17 6.29998H102.25V2.93998H113.98L114.76 2.63998L117.31 4.64998C117.061 4.87918 116.81 5.10619 116.558 5.33085ZM113.794 1.93998H101.25V7.29998H107.282C106.172 8.12375 105.24 8.75094 104.769 9.05881C104.204 9.41581 103.675 9.73922 103.189 9.99069C103.062 10.0563 102.943 10.1148 102.83 10.1663V7.69998H99.86V0.979982H94.53V7.69998H91.29V13.09H94.53V20.5239C93.4011 20.9072 92.4193 21.2345 91.5653 21.4785L90.571 21.7625L92.3825 27.3828L93.369 27.0033C96.0623 25.9674 99.4503 24.6129 102.562 23.3397C102.806 23.5283 103.016 23.7014 103.164 23.8371L103.773 24.3949L104.436 23.9032C106.108 22.6634 107.589 21.0282 108.795 19.1052C107.198 22.3006 105.019 24.8564 102.229 26.6023L100.799 27.4978L102.271 28.3225C102.958 28.7071 104.278 29.6546 104.793 30.1152L105.398 30.6564L106.052 30.1759C107.371 29.2069 108.583 28.0785 109.684 26.8029C110.085 27.5882 110.377 28.7026 110.4 29.4603L110.429 30.3896L111.357 30.4291C112.771 30.4892 114.137 30.4649 115.088 30.2993C115.654 30.2284 116.204 30.0899 116.733 29.8026C117.271 29.511 117.73 29.097 118.154 28.5511C118.53 28.0848 118.809 27.4616 119.038 26.7038C119.271 25.9311 119.471 24.9495 119.653 23.7184C120.015 21.2621 120.317 17.7022 120.616 12.6026C120.65 12.3264 120.672 11.9179 120.686 11.6061C120.694 11.4346 120.7 11.2779 120.704 11.1642C120.706 11.1073 120.707 11.0609 120.708 11.0286L120.709 10.991L120.71 10.9781L120.71 10.9771L120.737 9.94998H112.481C114.324 8.57753 116.191 7.03738 117.987 5.38608L118.851 4.59141L114.932 1.50236L113.794 1.93998ZM110.993 25.1485C111.914 25.2286 112.729 25.25 113.17 25.25C113.25 25.25 113.299 25.2449 113.329 25.2398C113.343 25.2373 113.352 25.235 113.356 25.2336L113.361 25.2321L113.362 25.2315L113.363 25.2309C113.363 25.2309 113.368 25.2277 113.375 25.222C113.388 25.2105 113.416 25.1841 113.457 25.1303L113.49 25.0873L113.527 25.0495C113.527 25.0495 113.556 25.0145 113.605 24.9145C113.658 24.8063 113.721 24.6485 113.79 24.4268C113.927 23.9814 114.068 23.342 114.207 22.4574C114.375 21.3862 114.534 19.9943 114.684 18.2173C113.692 20.8016 112.459 23.1245 110.993 25.1485ZM101.859 13.09H99.86V18.6841L102.4 17.7827L102.615 18.8371C103.595 17.8445 104.427 16.6712 105.064 15.3735C104.965 15.3846 104.869 15.397 104.78 15.4109C104.565 15.4438 104.409 15.4804 104.308 15.5133C104.303 15.5151 104.297 15.5169 104.293 15.5185L103.255 16.6712L102.689 15.0987C102.529 14.6549 102.194 13.846 101.859 13.09ZM146.87 1.54998V11.87H150.32V12.5558L150.653 12.2229C153.23 9.64579 155.739 5.52079 157.228 1.34406L157.553 0.433813L162.867 2.12691L162.496 3.11259C162.465 3.19338 162.435 3.27421 162.404 3.35506L164.264 3.95908C168.556 3.39057 173.015 2.51434 175.804 1.51824L176.411 1.30143L180.617 5.65097L179.085 6.1422C177.687 6.5909 176.157 6.99282 174.535 7.32966C174.547 8.45332 174.585 9.57236 174.648 10.67H180.98V11.8871C183.441 9.29618 185.802 5.34384 187.228 1.34406L187.553 0.433813L192.867 2.12691L192.496 3.11259C191.726 5.15509 190.76 7.21888 189.68 9.19646V10.4394C192.702 8.06873 195.462 4.49045 196.809 1.69568L197.082 1.12998H201.702L201.992 1.62325C204.245 5.45628 207.729 9.28714 211.03 11.0927L212.097 11.6761L211.318 12.6102C210.63 13.4364 209.888 14.6286 209.34 15.6968L208.82 16.7081L207.883 16.064C207.448 15.7649 207.008 15.4426 206.57 15.102V30.28H201V11.84H203.019C201.725 10.4708 200.545 9.02171 199.591 7.64935C198.671 9.03966 197.534 10.5074 196.247 11.9H198.68V17.22C198.68 21.0103 197.945 26.6894 192.896 30.6377L192.092 31.2663L191.48 30.45C191.1 29.9429 190.361 29.1961 189.68 28.6419V30.55H184.29V16.9739C184.184 17.0885 184.078 17.2012 183.972 17.3119L182.877 18.455L182.315 16.9746C182.077 16.3463 181.484 15.0982 180.98 14.2098V15.88H175.139C175.453 18.2898 175.861 20.3814 176.305 21.9141C176.444 22.3917 176.582 22.8007 176.715 23.1404C176.766 22.604 176.802 21.9186 176.82 21.0682L176.871 18.7269L178.527 20.3829C179.185 21.0403 180.211 21.7135 180.981 22.0215L181.683 22.302L181.605 23.0533C181.364 25.3732 180.959 27.0309 180.158 28.1013C179.268 29.2921 178.034 29.59 176.71 29.59C175.664 29.59 174.775 29.1905 174.02 28.5331V30.01H160.02V25.855L159.845 25.8818L159.68 25.0926V30.55H154.29V16.9739C154.184 17.0885 154.078 17.2012 153.972 17.3119L152.877 18.455L152.315 16.9746C152.002 16.1497 151.078 14.256 150.546 13.5112L150.32 13.1945V16.69H149.078L149.664 16.9147L149.411 17.7961C148.689 20.3119 147.595 22.481 146.182 24.311C147.365 24.9525 148.715 25.4617 150.186 25.8181L151.962 26.2489L150.641 27.5126C150.043 28.0851 149.168 29.2885 148.718 30.0761L148.325 30.7634L147.566 30.5389C145.593 29.9553 143.824 29.1214 142.269 28.0311C140.816 29.0562 139.224 29.8845 137.518 30.5175L136.662 30.8351L136.554 30.61H131.16V28.2793C129.013 28.4814 126.909 28.6705 125.032 28.8392C124.221 28.9121 123.452 28.9812 122.741 29.0459L121.742 29.1367L121.295 24.0705L122.303 23.9929C122.647 23.9665 122.982 23.9471 123.319 23.9276C123.54 23.9148 123.762 23.9019 123.99 23.8869V16.69H121.65V11.87H125.16V1.54998H146.87ZM124.99 24.81C124.436 24.8636 123.892 24.8959 123.378 24.926C123.365 24.9268 123.352 24.9276 123.338 24.9283C123.004 24.9479 122.683 24.9667 122.38 24.99L122.65 28.05C122.971 28.0208 123.303 27.9907 123.646 27.9599C124.065 27.9221 124.498 27.8831 124.945 27.843C126.849 27.6719 128.984 27.48 131.16 27.2749C131.493 27.2436 131.826 27.2119 132.16 27.18V29.61H135.58V27.18C135.676 27.2954 135.774 27.4178 135.872 27.5447C135.888 27.5664 135.905 27.5882 135.922 27.6102C136.15 27.9105 136.376 28.2337 136.58 28.5498C136.818 28.9188 137.026 29.2781 137.17 29.58C139.03 28.89 140.74 27.96 142.27 26.79C143.86 28.02 145.72 28.95 147.85 29.58C148.168 29.0228 148.685 28.2677 149.198 27.6297C149.458 27.3059 149.718 27.0122 149.95 26.79C149.577 26.6997 149.211 26.5998 148.852 26.4905C147.658 26.1273 146.544 25.6605 145.538 25.0975C145.239 24.9301 144.949 24.7542 144.67 24.57C144.892 24.3202 145.107 24.0626 145.315 23.7971C146.683 22.0532 147.747 19.9674 148.45 17.52L146.26 16.68L145.66 16.8H136.33V19.53H139.09L137.11 20.07C137.177 20.2246 137.247 20.378 137.318 20.53C137.39 20.6845 137.464 20.8375 137.54 20.9891C138.03 21.9664 138.595 22.8828 139.22 23.7245C139.421 23.9941 139.627 24.2561 139.84 24.51C139.572 24.7078 139.295 24.896 139.009 25.0748C138.248 25.5517 137.429 25.961 136.58 26.3027C136.473 26.346 136.365 26.3882 136.256 26.4293C136.032 26.5141 135.807 26.5944 135.58 26.67V15.69H149.32V12.87H122.65V15.69H124.99V24.81ZM136.58 21.3035V25.2191C137.212 24.9458 137.819 24.6333 138.389 24.2826C137.711 23.3655 137.103 22.3671 136.58 21.3035ZM154.29 15.466C154.628 15.0678 154.963 14.6513 155.29 14.22V29.55H158.68V8.93998C159.48 7.49081 160.218 5.99486 160.86 4.49709C160.898 4.40806 160.936 4.31902 160.973 4.22998C161.049 4.05103 161.123 3.87209 161.195 3.69324C161.283 3.47726 161.368 3.2614 161.451 3.04581C161.488 2.95048 161.524 2.8552 161.56 2.75998L158.17 1.67998C156.64 5.96998 154.06 10.23 151.36 12.93C151.783 13.5223 152.385 14.6815 152.819 15.6187C153.001 16.0105 153.153 16.3635 153.25 16.62C153.5 16.3595 153.749 16.0873 153.997 15.8047C154.095 15.6934 154.193 15.5804 154.29 15.466ZM160.86 6.90489C160.486 7.6773 160.091 8.44314 159.68 9.19646V20.471L159.84 20.4549C160.168 20.4222 160.503 20.3804 160.86 20.3336V6.90489ZM161.86 21.21C161.698 21.2311 161.539 21.2523 161.383 21.2731C161.232 21.2932 161.083 21.313 160.937 21.332C160.593 21.3769 160.262 21.4178 159.94 21.45L160.63 24.7498C163.57 24.2998 167.38 23.7 170.92 23.1L170.74 19.92C170.583 19.9436 170.425 19.9674 170.267 19.9914C170.094 20.0176 169.921 20.0441 169.747 20.0707C169.474 20.1125 169.2 20.1546 168.927 20.1966C168.058 20.3303 167.189 20.464 166.34 20.5878C166.003 20.637 165.669 20.6845 165.34 20.73V14.88H170.5C170.653 16.2663 170.841 17.602 171.068 18.8595C171.132 19.2093 171.198 19.5531 171.267 19.8902C171.451 20.7859 171.656 21.6348 171.883 22.4259C172.14 23.3158 172.424 24.1324 172.739 24.86C172.83 25.0707 172.924 25.2739 173.02 25.4693C173.086 25.6033 173.153 25.7335 173.222 25.86C173.471 26.3217 173.737 26.7325 174.02 27.0865C174.789 28.0485 175.681 28.59 176.71 28.59C179.05 28.59 180.13 27.57 180.61 22.95C180.048 22.7251 179.392 22.3479 178.796 21.9137C178.438 21.6529 178.101 21.3714 177.82 21.09C177.81 21.5661 177.794 21.9985 177.773 22.3881C177.67 24.2567 177.437 25.14 177.04 25.14C175.966 25.14 174.813 21.201 174.131 15.88C174.089 15.5517 174.048 15.2182 174.01 14.88H179.98V11.67H173.71C173.59 9.98998 173.53 8.24998 173.53 6.50998C175.004 6.22915 176.406 5.89355 177.706 5.51742C178.072 5.41139 178.43 5.30214 178.78 5.18998L176.14 2.45998C173.2 3.50998 168.55 4.40998 164.17 4.97998L161.86 4.22998V21.21ZM171.656 24.86C171.549 24.5963 171.447 24.3233 171.348 24.0417L171.087 24.0859C169.54 24.3482 167.942 24.6103 166.387 24.86H171.656ZM170.079 19.0084C169.898 18.0039 169.743 16.9563 169.61 15.88H166.34V19.5772C167.136 19.4604 167.948 19.3355 168.764 19.2099C169.202 19.1426 169.641 19.075 170.079 19.0084ZM173.02 25.86H161.02V29.01H173.02V25.86ZM184.29 15.466C184.628 15.0678 184.963 14.6513 185.29 14.22V29.55H188.68V8.93998C189.623 7.23153 190.48 5.45805 191.195 3.69324C191.321 3.38175 191.443 3.07053 191.56 2.75998L188.17 1.67998C186.64 5.96998 184.06 10.23 181.36 12.93C181.783 13.5223 182.385 14.6815 182.819 15.6187C183.001 16.0105 183.153 16.3635 183.25 16.62C183.5 16.3595 183.749 16.0873 183.997 15.8047C184.095 15.6934 184.193 15.5804 184.29 15.466ZM189.68 15.1636V26.2522C192.895 23.6138 193.23 19.747 193.23 17.19V14.7586C192.643 15.2389 192.041 15.6896 191.426 16.101L190.471 16.7407L189.97 15.7055C189.889 15.5381 189.79 15.3549 189.68 15.1636ZM193.23 13.4487C193.435 13.2692 193.639 13.0861 193.839 12.9C193.971 12.7783 194.101 12.6552 194.23 12.531C194.445 12.3237 194.658 12.1132 194.867 11.9C196.492 10.2413 197.911 8.42324 198.987 6.74444C199.194 6.42039 199.389 6.10152 199.57 5.78998C199.756 6.09644 199.958 6.4109 200.174 6.73108C201.289 8.38671 202.775 10.1952 204.413 11.84C204.465 11.8925 204.517 11.9449 204.57 11.9971C204.859 12.284 205.153 12.5655 205.45 12.84H202V29.28H205.57V12.96C205.897 13.2555 206.232 13.5437 206.57 13.8217C206.577 13.8278 206.585 13.8339 206.592 13.84C206.936 14.1218 207.282 14.3931 207.629 14.6514C207.904 14.8563 208.178 15.053 208.45 15.24C208.598 14.9526 208.759 14.6553 208.931 14.3567C209.242 13.8153 209.585 13.27 209.937 12.7734C210.14 12.4858 210.346 12.2146 210.55 11.97C210.26 11.8116 209.97 11.639 209.68 11.4536C206.455 9.39194 203.249 5.73571 201.13 2.12998H197.71C196.214 5.23288 193.081 9.23124 189.68 11.6915C189.675 11.6951 189.67 11.6988 189.665 11.7024C189.388 11.9023 189.11 12.0919 188.83 12.27C189.031 12.4886 189.25 12.7555 189.47 13.0472C189.54 13.1396 189.61 13.2346 189.68 13.3312C189.927 13.6742 190.17 14.0389 190.384 14.3914C190.573 14.7014 190.74 15.0019 190.87 15.27C191.148 15.0838 191.424 14.8891 191.697 14.6867C192.219 14.2996 192.731 13.8846 193.23 13.4487ZM194.23 17.19C194.23 19.7274 193.919 23.8716 190.575 26.8043C190.321 27.0269 190.05 27.2426 189.76 27.45C190.019 27.6283 190.298 27.849 190.578 28.09C191.163 28.5943 191.748 29.1877 192.138 29.6682C192.189 29.7308 192.236 29.7914 192.28 29.8497V29.8497C192.548 29.64 192.803 29.4252 193.046 29.2054C197.04 25.59 197.68 20.6985 197.68 17.22V12.9H194.23V17.19ZM126.16 2.54998H145.87V11.76H126.16V2.54998ZM144.16 19.53H140.11C140.272 19.8727 140.452 20.2064 140.648 20.53C140.896 20.9385 141.169 21.3311 141.464 21.7057C141.673 21.9696 141.891 22.2246 142.12 22.47C142.348 22.2247 142.567 21.9698 142.776 21.7061C143.072 21.3313 143.348 20.9386 143.602 20.53C143.802 20.2064 143.989 19.8727 144.16 19.53ZM142.405 20.53H141.839C141.93 20.6618 142.024 20.7917 142.121 20.9195C142.218 20.7918 142.313 20.6619 142.405 20.53ZM129.26 24.4988C129.083 24.5115 128.908 24.5239 128.733 24.5364C128.574 24.5476 128.417 24.5588 128.26 24.57V23.1H132.16V24.27C131.185 24.3586 130.211 24.4308 129.26 24.4988ZM166.34 8.68454V10.67H169.125C169.076 9.89064 169.039 9.10338 169.006 8.32363C168.109 8.45387 167.216 8.57417 166.34 8.68454ZM165.34 7.79998V11.67H170.2C170.173 11.3393 170.149 11.0057 170.127 10.67C170.074 9.84554 170.036 9.00897 170.001 8.17543C169.988 7.86792 169.976 7.56081 169.963 7.25489L169.96 7.16998C169.628 7.22103 169.296 7.27072 168.965 7.31905C167.739 7.49796 166.521 7.65827 165.34 7.79998ZM223.546 20.29L222.661 9.08613L222.476 3.55998H229.524L229.339 9.08613L228.454 20.29H223.546ZM228.34 9.02998L227.53 19.29H224.47L223.66 9.02998L223.51 4.55998H228.49L228.34 9.02998ZM229.64 24.63C229.64 26.7573 228.037 28.27 226 28.27C224.994 28.27 224.074 27.9114 223.402 27.2449C222.729 26.5772 222.36 25.6546 222.36 24.63C222.36 22.4802 223.955 20.96 226 20.96C228.045 20.96 229.64 22.4802 229.64 24.63ZM253.546 20.29L252.661 9.08613L252.476 3.55998H259.524L259.339 9.08613L258.454 20.29H253.546ZM258.34 9.02998L257.53 19.29H254.47L253.66 9.02998L253.51 4.55998H258.49L258.34 9.02998ZM259.64 24.63C259.64 26.7573 258.037 28.27 256 28.27C254.994 28.27 254.074 27.9114 253.402 27.2449C252.729 26.5772 252.36 25.6546 252.36 24.63C252.36 22.4802 253.955 20.96 256 20.96C258.045 20.96 259.64 22.4802 259.64 24.63ZM283.546 20.29L282.661 9.08613L282.476 3.55998H289.524L289.339 9.08613L288.454 20.29H283.546ZM288.34 9.02998L287.53 19.29H284.47L283.66 9.02998L283.51 4.55998H288.49L288.34 9.02998ZM289.64 24.63C289.64 26.7573 288.037 28.27 286 28.27C284.994 28.27 284.074 27.9114 283.402 27.2449C282.729 26.5772 282.36 25.6546 282.36 24.63C282.36 22.4802 283.955 20.96 286 20.96C288.045 20.96 289.64 22.4802 289.64 24.63ZM15.97 6.02998V10.05H24.76V6.02998H15.97ZM142.3 6.05998V4.82998H129.58V6.05998H142.3ZM142.3 9.47998V8.21998H129.58V9.47998H142.3ZM128.26 19.38V20.64H132.16V19.38H128.26ZM132.16 15.69H128.26V16.89H132.16V15.69ZM228.64 24.63C228.64 26.19 227.5 27.27 226 27.27C224.47 27.27 223.36 26.19 223.36 24.63C223.36 23.04 224.5 21.96 226 21.96C227.5 21.96 228.64 23.04 228.64 24.63ZM258.64 24.63C258.64 26.19 257.5 27.27 256 27.27C254.47 27.27 253.36 26.19 253.36 24.63C253.36 23.04 254.5 21.96 256 21.96C257.5 21.96 258.64 23.04 258.64 24.63ZM288.64 24.63C288.64 26.19 287.5 27.27 286 27.27C284.47 27.27 283.36 26.19 283.36 24.63C283.36 23.04 284.5 21.96 286 21.96C287.5 21.96 288.64 23.04 288.64 24.63Z" fill="#FD451D"/>
</svg>
