<svg width="29" height="48" viewBox="0 0 29 48" fill="none" xmlns="http://www.w3.org/2000/svg">
<g filter="url(#filter0_d)">
<path d="M24.4535 6.34167L25 8.39738L16.9943 14.8685L16.4457 12.8098L24.4535 6.34167Z" fill="url(#paint0_linear)"/>
<path d="M7.03744 28.9604L7.00541 28.8159C6.97979 28.6895 6.95204 28.5631 6.92856 28.4367C6.92856 28.4066 6.91575 28.3765 6.91148 28.3494C6.90721 28.3223 6.91148 28.3223 6.91148 28.3073C6.87732 28.1207 6.84743 27.9341 6.82182 27.7475C6.82182 27.7083 6.81114 27.6692 6.80474 27.6301C6.78125 27.4585 6.76204 27.287 6.74283 27.1124C6.74283 27.0943 6.74283 27.0793 6.74283 27.0612C6.74183 27.0553 6.74183 27.0491 6.74283 27.0432C6.71934 26.8054 6.7044 26.5676 6.69159 26.3298C6.69159 26.3027 6.69159 26.2787 6.69159 26.2516C6.68092 26.0198 6.67665 25.7881 6.67665 25.5593V25.46C6.67665 25.2764 6.67665 25.0958 6.68946 24.9122V24.8039C6.68946 24.6383 6.70653 24.4758 6.71934 24.3133C6.71934 24.2832 6.71934 24.2531 6.71934 24.226C6.73429 24.0424 6.7535 23.8648 6.77485 23.6842C6.77485 23.6421 6.77485 23.6029 6.78979 23.5608C6.81114 23.3923 6.83462 23.2207 6.86024 23.0521C6.86145 23.0412 6.86145 23.03 6.86024 23.019V23.019C6.88586 22.8595 6.91575 22.7 6.94564 22.5405L6.97125 22.4111C6.99403 22.2907 7.01964 22.1703 7.04811 22.0499C7.04811 22.0047 7.06732 21.9626 7.07586 21.9175C7.11215 21.764 7.15058 21.6165 7.19114 21.4539C7.18994 21.441 7.18994 21.4278 7.19114 21.4148C7.22744 21.2703 7.268 21.1319 7.30856 20.9904C7.32137 20.9453 7.33418 20.9001 7.34912 20.858C7.38328 20.7376 7.41957 20.6202 7.458 20.5028L7.49429 20.3945C7.54339 20.244 7.59463 20.0935 7.648 19.949L7.68216 19.8617C7.72699 19.7414 7.77182 19.621 7.81879 19.5036L7.87003 19.3742C7.91913 19.2538 7.96823 19.1364 8.01946 19.019C8.01946 18.9979 8.03654 18.9769 8.04508 18.9588V18.9438C8.13902 18.7331 8.23722 18.5224 8.33756 18.3177L8.36104 18.2666C8.46138 18.0649 8.57452 17.8632 8.67486 17.6646C8.68528 17.6489 8.69458 17.6317 8.70261 17.6134C8.81149 17.4178 8.9161 17.2282 9.03779 17.0385L9.06981 16.9844C9.18509 16.7978 9.30251 16.6172 9.42206 16.4366L9.44768 16.4005L9.46689 16.3734C9.54801 16.253 9.62914 16.1386 9.7124 16.0242L9.75509 15.964L9.96858 15.6811L10.0497 15.5788C10.1137 15.4975 10.1778 15.4163 10.244 15.338C10.2675 15.3049 10.2931 15.2748 10.3187 15.2447C10.4062 15.1394 10.4959 15.034 10.5877 14.9437L10.6411 14.8865C10.703 14.8173 10.7649 14.7481 10.8289 14.6819L10.9229 14.5856L11.083 14.42L11.1876 14.3177C11.2388 14.2665 11.29 14.2153 11.3434 14.1672L11.4523 14.0649L11.6081 13.9234L11.6722 13.8692L11.6999 13.8451C11.8494 13.7157 12.001 13.5893 12.1525 13.4719L12.2123 13.4238C12.3681 13.3064 12.524 13.192 12.682 13.0867L12.7161 13.0626L12.7417 13.0445C12.889 12.9452 13.0364 12.8519 13.1858 12.7646L13.2562 12.7225C13.4057 12.6382 13.5551 12.5569 13.7067 12.4787L13.7409 12.4606L13.7793 12.4426C13.9266 12.3703 14.076 12.3041 14.2255 12.2409L14.2959 12.2108C14.4475 12.1476 14.6012 12.0904 14.7549 12.0393H14.7763H14.8104C14.9748 11.9881 15.1392 11.9399 15.3036 11.8978H15.3463C15.5149 11.8587 15.6857 11.8225 15.8543 11.7955H15.88C16.0593 11.7684 16.2386 11.7473 16.4179 11.7383H16.4329C16.6165 11.7383 16.8001 11.7383 16.9837 11.7383L16.4606 9.61334C16.277 9.61334 16.0935 9.61334 15.9099 9.61334H15.8949C15.7156 9.61334 15.5363 9.64645 15.3569 9.67354H15.3334C15.1627 9.70063 14.9919 9.73674 14.8232 9.77587H14.7805C14.6161 9.81801 14.4518 9.86617 14.2895 9.91733L14.2319 9.93539C14.0782 9.98656 13.9244 10.0437 13.7729 10.107L13.7024 10.134C13.553 10.1972 13.4035 10.2665 13.2562 10.3387L13.1837 10.3748C13.0321 10.4501 12.8826 10.5343 12.7332 10.6186L12.6649 10.6608C12.5154 10.748 12.366 10.8413 12.2208 10.9407L12.1589 10.9828C12.001 11.0882 11.8451 11.2025 11.6914 11.3199L11.6316 11.3681C11.4779 11.4854 11.3263 11.6119 11.1769 11.7413L11.0851 11.8195L10.9293 11.961L10.8204 12.0633L10.6645 12.2138L10.5599 12.3162L10.3998 12.4787L10.3059 12.575L10.118 12.7827L10.0582 12.8459L9.78925 13.1469L9.71453 13.2372L9.52026 13.481L9.43914 13.5833L9.22565 13.8662L9.18296 13.9234C9.0997 14.0378 9.01857 14.1551 8.93745 14.2725L8.89475 14.3387C8.77306 14.5163 8.65565 14.6999 8.5425 14.8835L8.50834 14.9407C8.39306 15.1273 8.28205 15.3199 8.17531 15.5156L8.14542 15.5667C8.03868 15.7654 7.93194 15.964 7.8316 16.1687L7.80811 16.2169C7.70778 16.4245 7.60957 16.6322 7.51564 16.8459L7.48575 16.9182C7.43452 17.0385 7.38328 17.1559 7.33631 17.2763C7.3171 17.3185 7.30002 17.3636 7.28294 17.4057C7.23598 17.5231 7.19114 17.6435 7.14631 17.7639L7.11429 17.8512C7.06092 17.9987 7.00968 18.1522 6.95845 18.2936C6.94777 18.3328 6.93496 18.3689 6.92429 18.405C6.88586 18.5224 6.84957 18.6398 6.81328 18.7571L6.77271 18.8926C6.73215 19.0341 6.69159 19.1725 6.6553 19.317C6.6553 19.317 6.6553 19.3411 6.64462 19.3561C6.60406 19.5096 6.56777 19.6571 6.53148 19.8196C6.5208 19.8648 6.51013 19.9069 6.50159 19.952C6.47312 20.0724 6.44751 20.1928 6.42473 20.3132L6.39912 20.4426C6.36923 20.6022 6.34148 20.7436 6.31586 20.9182C6.31485 20.9332 6.31485 20.9483 6.31586 20.9633C6.2881 21.1319 6.26462 21.3004 6.24327 21.472C6.24327 21.5141 6.24327 21.5533 6.22833 21.5954C6.20698 21.773 6.18777 21.9536 6.17282 22.1342V22.2245C6.16001 22.387 6.14934 22.5495 6.1408 22.7151C6.1408 22.7512 6.1408 22.7873 6.1408 22.8234C6.1408 23.007 6.12799 23.1876 6.12799 23.3712C6.12799 23.4043 6.12799 23.4374 6.12799 23.4675C6.12799 23.6983 6.13226 23.93 6.1408 24.1628C6.14186 24.1888 6.14186 24.215 6.1408 24.241C6.15361 24.4778 6.17069 24.7156 6.19204 24.9544C6.19204 24.9784 6.19204 24.9995 6.19204 25.0236C6.20911 25.1951 6.23046 25.3697 6.25395 25.5413C6.25395 25.5804 6.25395 25.6195 6.26889 25.6586C6.29451 25.8453 6.32653 26.0319 6.36069 26.2185C6.36069 26.2606 6.37563 26.3027 6.38417 26.3479C6.40979 26.4743 6.43541 26.6007 6.46316 26.7271L6.49518 26.8716C6.53361 27.0371 6.57204 27.2027 6.61687 27.3682L7.16553 29.4239C7.11642 29.2915 7.07586 29.126 7.03744 28.9604Z" fill="url(#paint1_linear)"/>
<path d="M15.4658 37.7521C10.9463 36.2472 7.93619 33.6136 6.13865 30.4563C5.48601 29.3221 4.96636 28.0478 4.59943 26.682L5.14808 28.7377C5.51527 30.1009 6.03413 31.3729 6.68517 32.506C8.47631 35.6693 11.4928 38.2999 16.0123 39.8078L15.4658 37.7521Z" fill="url(#paint2_linear)"/>
<path d="M8.04955 30.8807C9.52473 33.4661 11.9158 35.8589 15.4745 37.7521C10.9551 36.2472 7.94494 33.6136 6.1474 30.4563C0.364104 20.3192 7.08887 4.75249 16.4886 3.50643L16.5014 0L24.4537 6.34167L16.4459 12.8098L16.4608 9.61334C9.52046 9.41168 2.65693 21.4329 8.04955 30.8807Z" fill="url(#paint3_linear)"/>
</g>
<defs>
<filter id="filter0_d" x="0" y="0" width="29" height="47.8078" filterUnits="userSpaceOnUse" color-interpolation-filters="sRGB">
<feFlood flood-opacity="0" result="BackgroundImageFix"/>
<feColorMatrix in="SourceAlpha" type="matrix" values="0 0 0 0 0 0 0 0 0 0 0 0 0 0 0 0 0 0 127 0" result="hardAlpha"/>
<feOffset dy="4"/>
<feGaussianBlur stdDeviation="2"/>
<feComposite in2="hardAlpha" operator="out"/>
<feColorMatrix type="matrix" values="0 0 0 0 0.678431 0 0 0 0 0.0196078 0 0 0 0 0.0196078 0 0 0 0.4 0"/>
<feBlend mode="normal" in2="BackgroundImageFix" result="effect1_dropShadow"/>
<feBlend mode="normal" in="SourceGraphic" in2="effect1_dropShadow" result="shape"/>
</filter>
<linearGradient id="paint0_linear" x1="27.8043" y1="7.43598" x2="19.1337" y2="9.30501" gradientUnits="userSpaceOnUse">
<stop stop-color="#EEA101"/>
<stop offset="0.28" stop-color="#EA9101"/>
<stop offset="0.69" stop-color="#E57F02"/>
<stop offset="0.99" stop-color="#E37802"/>
</linearGradient>
<linearGradient id="paint1_linear" x1="1067.05" y1="-2606.18" x2="1604.27" y2="-1963.81" gradientUnits="userSpaceOnUse">
<stop stop-color="#EEA101"/>
<stop offset="0.28" stop-color="#EA9101"/>
<stop offset="0.69" stop-color="#E57F02"/>
<stop offset="0.99" stop-color="#E37802"/>
</linearGradient>
<linearGradient id="paint2_linear" x1="7384.8" y1="32028.4" x2="6855.18" y2="31924" gradientUnits="userSpaceOnUse">
<stop stop-color="#EEA101"/>
<stop offset="0.28" stop-color="#EA9101"/>
<stop offset="0.69" stop-color="#E57F02"/>
<stop offset="0.99" stop-color="#E37802"/>
</linearGradient>
<linearGradient id="paint3_linear" x1="5.67259" y1="10.1256" x2="20.8706" y2="16.9475" gradientUnits="userSpaceOnUse">
<stop stop-color="#FCD700"/>
<stop offset="0.28" stop-color="#F8C700"/>
<stop offset="0.69" stop-color="#F3B501"/>
<stop offset="0.99" stop-color="#F1AE01"/>
</linearGradient>
</defs>
</svg>
