<svg width="22" height="15" viewBox="0 0 22 15" fill="none" xmlns="http://www.w3.org/2000/svg">
<path d="M11 0.000976562C6 0.000976562 1.73 3.11098 0 7.50098C1.73 11.891 6 15.001 11 15.001C16 15.001 20.27 11.891 22 7.50098C20.27 3.11098 16 0.000976562 11 0.000976562ZM11 12.501C8.24 12.501 6 10.261 6 7.50098C6 4.74098 8.24 2.50098 11 2.50098C13.76 2.50098 16 4.74098 16 7.50098C16 10.261 13.76 12.501 11 12.501ZM11 4.50098C9.34 4.50098 8 5.84098 8 7.50098C8 9.16098 9.34 10.501 11 10.501C12.66 10.501 14 9.16098 14 7.50098C14 5.84098 12.66 4.50098 11 4.50098Z" fill="#DA552F"/>
</svg>
