<svg width="32" height="33" viewBox="0 0 32 33" fill="none" xmlns="http://www.w3.org/2000/svg">
<path d="M16 0.59668C7.16281 0.59668 0 7.75949 0 16.5967C0 25.4339 7.16281 32.5967 16 32.5967C24.8372 32.5967 32 25.4339 32 16.5967C32 7.75949 24.8372 0.59668 16 0.59668ZM24.1378 13.5304C24.0475 20.3598 19.6797 25.0379 13.1609 25.332C10.4734 25.4548 8.52469 24.5864 6.82937 23.5095C8.81625 23.8267 11.2803 23.0323 12.5981 21.9045C10.6503 21.7145 9.49719 20.7236 8.9575 19.1279C9.5187 19.2199 10.0922 19.2056 10.6481 19.0861C8.89031 18.4979 7.63531 17.412 7.57031 15.1354C8.06375 15.3601 8.57781 15.5707 9.26094 15.6123C7.94563 14.8645 6.97281 12.1295 8.08687 10.3207C10.0391 12.4607 12.3872 14.2067 16.2431 14.4429C15.2744 10.3045 20.7591 8.06043 23.0556 10.842C24.0244 10.6545 24.8156 10.2861 25.5753 9.88543C25.2628 10.8464 24.6603 11.5182 23.9263 12.0554C24.7322 11.9464 25.4456 11.7498 26.0547 11.4486C25.6756 12.2336 24.8487 12.9376 24.1378 13.5304Z" fill="#CDCDCD"/>
</svg>
